<?xml version="1.0" standalone="no"?>
<!DOCTYPE svg PUBLIC "-//W3C//DTD SVG 20010904//EN"
 "http://www.w3.org/TR/2001/REC-SVG-20010904/DTD/svg10.dtd">
<svg version="1.0" xmlns="http://www.w3.org/2000/svg"
 width="146.000000pt" height="146.000000pt" viewBox="0 0 146.000000 146.000000"
 preserveAspectRatio="xMidYMid meet">

<g transform="translate(0.000000,146.000000) scale(0.100000,-0.100000)"
fill="#000000" stroke="none">
<path d="M635 1296 c-183 -45 -309 -194 -336 -396 -17 -126 -6 -359 20 -434
44 -124 125 -215 239 -269 62 -30 75 -32 172 -32 99 0 109 2 173 33 122 60
210 171 242 303 21 89 21 383 0 464 -46 174 -178 303 -345 335 -66 13 -102 12
-165 -4z m220 -33 c140 -49 245 -174 275 -330 8 -40 11 -123 8 -240 -5 -199
-15 -240 -85 -341 -173 -252 -551 -216 -691 67 -35 71 -37 81 -41 189 -2 82 0
113 8 108 7 -5 11 1 11 13 0 12 -4 21 -10 21 -19 0 -12 173 10 242 68 220 304
344 515 271z"/>
<path d="M666 1228 c-10 -39 -7 -45 19 -40 29 5 28 4 13 37 -14 31 -24 32 -32
3z"/>
<path d="M740 1219 c0 -18 4 -28 10 -24 6 4 17 2 24 -4 11 -9 15 -6 20 15 8
29 -1 45 -13 25 -7 -10 -10 -9 -14 3 -11 27 -27 18 -27 -15z"/>
<path d="M584 1216 c-6 -15 12 -56 24 -56 4 0 14 5 22 10 13 8 13 10 -1 10
-11 0 -15 8 -14 25 3 27 -21 36 -31 11z"/>
<path d="M826 1213 c-8 -25 -4 -39 11 -35 7 2 13 -2 13 -8 0 -5 5 -10 11 -10
6 0 8 7 5 16 -4 9 -1 23 5 30 7 9 8 14 1 14 -6 0 -17 3 -25 6 -9 3 -17 -2 -21
-13z"/>
<path d="M516 1187 c-15 -11 -17 -17 -7 -35 14 -26 49 -29 58 -6 3 9 -3 24
-14 35 -16 17 -21 17 -37 6z m31 -33 c-9 -9 -28 6 -21 18 4 6 10 6 17 -1 6 -6
8 -13 4 -17z"/>
<path d="M902 1188 c-17 -17 -15 -47 4 -55 23 -9 51 23 38 44 -14 22 -27 26
-42 11z m24 -35 c-10 -10 -19 5 -10 18 6 11 8 11 12 0 2 -7 1 -15 -2 -18z"/>
<path d="M452 1138 c-7 -7 -12 -16 -12 -22 0 -5 3 -6 7 -3 3 4 15 0 25 -10 24
-22 31 -13 15 20 -14 30 -18 32 -35 15z"/>
<path d="M627 1136 c-46 -17 -99 -56 -132 -99 -48 -63 -55 -104 -55 -306 0
-227 9 -261 84 -337 143 -142 377 -101 467 82 23 47 24 58 24 254 0 232 -7
261 -80 335 -78 77 -206 107 -308 71z m218 -34 c53 -27 99 -77 125 -134 18
-41 20 -68 22 -230 2 -222 -5 -252 -77 -324 -120 -120 -310 -106 -402 30 -49
72 -55 108 -51 310 l3 181 31 55 c32 57 97 111 158 130 47 14 146 5 191 -18z"/>
<path d="M661 1100 c-10 -5 -8 -9 4 -14 24 -9 16 -51 -10 -51 -14 0 -19 6 -17
18 2 10 -3 17 -13 17 -24 0 -18 -38 9 -55 29 -19 61 -8 71 25 13 40 -15 78
-44 60z"/>
<path d="M750 1091 c-17 -32 -11 -60 15 -77 23 -15 27 -15 50 0 27 18 34 56
10 56 -8 0 -15 -9 -15 -20 0 -25 -35 -27 -45 -3 -4 12 1 24 14 34 18 15 18 18
5 23 -22 8 -22 8 -34 -13z"/>
<path d="M548 975 c-30 -17 -49 -67 -40 -110 6 -33 55 -65 99 -65 50 0 48 18
-2 26 -25 3 -53 13 -60 21 -22 21 -19 77 5 98 23 21 75 24 92 7 9 -9 5 -12
-19 -12 -56 0 -84 -57 -41 -84 22 -13 35 -1 18 19 -16 20 -6 45 19 45 45 0 51
-29 51 -263 0 -218 0 -218 24 -242 20 -19 30 -23 48 -16 43 15 48 42 48 273 0
231 3 248 51 248 26 0 37 -30 16 -45 -24 -17 -21 -27 6 -23 16 2 23 11 25 31
4 36 -12 55 -51 59 l-32 4 26 13 c58 29 120 -40 88 -97 -11 -20 -26 -29 -62
-36 -52 -9 -64 -26 -18 -26 41 0 90 19 101 40 13 25 13 73 -1 103 -12 27 -47
47 -84 47 -77 0 -85 -25 -85 -282 0 -228 -8 -288 -40 -288 -10 0 -22 6 -27 13
-4 6 -10 124 -13 260 l-5 249 -28 24 c-32 27 -69 30 -109 9z"/>
<path d="M480 791 c0 -5 14 -11 30 -15 17 -3 42 -17 56 -31 29 -29 34 -30 34
-11 0 23 -59 66 -91 66 -16 0 -29 -4 -29 -9z"/>
<path d="M885 769 c-19 -17 -32 -35 -29 -41 4 -5 18 2 33 16 15 14 41 29 59
32 40 8 42 24 2 24 -19 0 -42 -11 -65 -31z"/>
<path d="M717 744 c-14 -14 -7 -35 11 -32 9 2 17 10 17 17 0 16 -18 25 -28 15z"/>
<path d="M490 731 c0 -6 5 -13 10 -16 15 -9 12 -45 -5 -51 -18 -7 -21 -38 -3
-32 6 2 21 16 32 31 16 22 18 31 8 52 -11 24 -42 36 -42 16z"/>
<path d="M932 728 c-18 -18 -14 -56 8 -78 21 -21 40 -26 40 -12 0 5 -9 17 -20
27 -24 22 -26 41 -4 49 8 3 12 10 9 16 -8 13 -18 13 -33 -2z"/>
<path d="M605 709 c-28 -14 -49 -49 -37 -61 5 -5 15 1 26 16 9 15 25 26 36 26
11 0 20 7 20 15 0 17 -16 18 -45 4z"/>
<path d="M810 706 c0 -8 10 -16 23 -18 12 -2 26 -13 32 -25 12 -28 25 -30 25
-5 0 22 -25 47 -57 56 -17 5 -23 3 -23 -8z"/>
<path d="M720 560 c0 -67 4 -110 10 -110 6 0 10 43 10 110 0 67 -4 110 -10
110 -6 0 -10 -43 -10 -110z"/>
<path d="M502 614 c-12 -8 -22 -22 -22 -30 0 -12 5 -11 26 5 35 28 48 26 86
-8 29 -26 33 -35 31 -75 -1 -45 9 -61 21 -30 26 68 -31 154 -102 154 -10 0
-28 -7 -40 -16z"/>
<path d="M843 595 c-31 -31 -34 -39 -31 -81 2 -26 8 -49 15 -51 8 -3 10 6 6
30 -6 42 19 94 52 107 27 10 75 -2 75 -20 0 -5 5 -10 10 -10 18 0 10 29 -12
44 -37 26 -76 20 -115 -19z"/>
<path d="M530 561 c0 -5 9 -11 21 -14 15 -4 20 -12 17 -29 -2 -18 -11 -24 -37
-28 -32 -5 -33 -6 -17 -20 16 -12 21 -12 43 0 41 24 49 44 30 74 -16 24 -57
37 -57 17z"/>
<path d="M876 554 c-30 -30 -13 -74 35 -89 14 -5 27 -1 37 9 15 15 14 16 -15
16 -39 0 -61 23 -43 45 7 8 19 15 26 15 8 0 14 5 14 10 0 16 -37 12 -54 -6z"/>
<path d="M580 426 c0 -19 57 -66 81 -66 10 0 19 5 19 10 0 6 -7 10 -16 10 -8
0 -29 14 -46 30 -33 34 -38 36 -38 16z"/>
<path d="M822 409 c-18 -16 -39 -29 -47 -29 -8 0 -15 -4 -15 -10 0 -26 82 6
100 39 16 32 -3 31 -38 0z"/>
<path d="M962 1127 c-17 -18 -19 -26 -10 -35 17 -17 29 -15 22 3 -5 11 -2 13
10 9 12 -5 15 -2 10 10 -5 13 -2 15 12 9 17 -6 17 -5 5 10 -18 22 -23 21 -49
-6z"/>
<path d="M1044 734 c0 -24 4 -44 8 -44 4 0 8 5 8 11 0 8 4 8 15 -1 21 -18 32
-5 31 37 -2 34 -4 38 -32 39 -29 1 -30 0 -30 -42z m46 -5 c0 -5 -7 -9 -15 -9
-9 0 -15 9 -15 21 0 18 2 19 15 9 8 -7 15 -16 15 -21z"/>
<path d="M362 736 c1 -10 8 -17 13 -17 15 1 12 24 -3 29 -9 3 -13 -2 -10 -12z"/>
<path d="M400 741 c0 -6 5 -13 10 -16 6 -3 10 1 10 9 0 9 -4 16 -10 16 -5 0
-10 -4 -10 -9z"/>
<path d="M416 417 c-16 -12 -14 -47 3 -47 19 0 42 27 35 43 -7 20 -14 21 -38
4z"/>
<path d="M1015 410 c3 -5 -1 -10 -9 -10 -27 0 -26 -17 1 -35 23 -16 25 -16 20
-1 -4 10 -1 16 8 16 18 0 19 12 3 28 -15 15 -32 16 -23 2z"/>
<path d="M455 366 c-18 -13 -18 -15 -2 -30 15 -15 17 -15 27 5 7 12 8 25 3 30
-5 5 -17 3 -28 -5z"/>
<path d="M952 358 c-7 -7 -8 -17 -1 -30 12 -21 32 -23 48 -4 9 11 8 18 -4 30
-19 19 -27 20 -43 4z m33 -18 c3 -5 2 -10 -4 -10 -5 0 -13 5 -16 10 -3 6 -2
10 4 10 5 0 13 -4 16 -10z"/>
<path d="M492 320 c-10 -17 -10 -20 3 -20 8 0 15 -5 15 -12 0 -8 6 -6 16 4 18
18 13 48 -8 48 -7 0 -19 -9 -26 -20z"/>
<path d="M906 308 c19 -33 26 -38 40 -27 12 10 10 14 -12 25 -32 17 -37 17
-28 2z"/>
<path d="M541 289 c-11 -18 -11 -23 1 -30 20 -13 26 -11 38 11 21 39 -15 56
-39 19z"/>
<path d="M861 288 c0 -7 3 -21 7 -30 6 -14 9 -15 26 -3 16 12 17 17 6 30 -15
18 -40 20 -39 3z"/>
<path d="M600 270 c-12 -23 -6 -40 15 -40 8 0 12 8 10 20 -2 11 1 20 6 20 6 0
7 5 4 10 -10 16 -23 12 -35 -10z"/>
<path d="M807 273 c-7 -12 11 -53 22 -53 16 0 23 18 16 40 -6 20 -30 27 -38
13z"/>
<path d="M650 246 c0 -17 5 -23 18 -22 37 3 39 46 1 46 -13 0 -19 -7 -19 -24z"/>
<path d="M730 240 c0 -23 5 -30 19 -30 25 0 37 18 17 26 -8 3 -12 12 -9 20 3
8 -1 14 -11 14 -11 0 -16 -9 -16 -30z"/>
</g>
</svg>
